<svg width="414" height="34" viewBox="0 0 414 34" fill="none" xmlns="http://www.w3.org/2000/svg">
<g style="mix-blend-mode:multiply">
<path d="M34 17C34 19.2325 33.5473 21.4431 32.6679 23.5056C31.7884 25.5682 30.4994 27.4422 28.8744 29.0208C27.2493 30.5994 25.3202 31.8516 23.197 32.706C21.0738 33.5603 18.7981 34 16.5 34C14.2019 34 11.9262 33.5603 9.80304 32.706C7.67984 31.8516 5.75066 30.5994 4.12563 29.0208C2.50061 27.4422 1.21156 25.5682 0.332108 23.5056C-0.54735 21.4431 -1 19.2325 -1 17L16.5 17H34Z" fill="#C4C4C4"/>
</g>
<g style="mix-blend-mode:multiply">
<path d="M242 17C242 19.2325 241.547 21.4431 240.668 23.5056C239.788 25.5682 238.499 27.4422 236.874 29.0208C235.249 30.5994 233.32 31.8516 231.197 32.706C229.074 33.5603 226.798 34 224.5 34C222.202 34 219.926 33.5603 217.803 32.706C215.68 31.8516 213.751 30.5994 212.126 29.0208C210.501 27.4422 209.212 25.5682 208.332 23.5056C207.453 21.4431 207 19.2325 207 17L224.5 17H242Z" fill="#C4C4C4"/>
</g>
<g style="mix-blend-mode:multiply">
<path d="M138 17C138 19.2325 137.547 21.4431 136.668 23.5056C135.788 25.5682 134.499 27.4422 132.874 29.0208C131.249 30.5994 129.32 31.8516 127.197 32.706C125.074 33.5603 122.798 34 120.5 34C118.202 34 115.926 33.5603 113.803 32.706C111.68 31.8516 109.751 30.5994 108.126 29.0208C106.501 27.4422 105.212 25.5682 104.332 23.5056C103.453 21.4431 103 19.2325 103 17L120.5 17H138Z" fill="#C4C4C4"/>
</g>
<g style="mix-blend-mode:multiply">
<path d="M346 17C346 19.2325 345.547 21.4431 344.668 23.5056C343.788 25.5682 342.499 27.4422 340.874 29.0208C339.249 30.5994 337.32 31.8516 335.197 32.706C333.074 33.5603 330.798 34 328.5 34C326.202 34 323.926 33.5603 321.803 32.706C319.68 31.8516 317.751 30.5994 316.126 29.0208C314.501 27.4422 313.212 25.5682 312.332 23.5056C311.453 21.4431 311 19.2325 311 17L328.5 17H346Z" fill="#C4C4C4"/>
</g>
<g style="mix-blend-mode:multiply">
<path d="M68 17C68 19.2325 67.5603 21.4431 66.706 23.5056C65.8516 25.5682 64.5994 27.4422 63.0208 29.0208C61.4422 30.5994 59.5682 31.8516 57.5056 32.706C55.4431 33.5603 53.2325 34 51 34C48.7675 34 46.5569 33.5603 44.4944 32.706C42.4318 31.8516 40.5578 30.5994 38.9792 29.0208C37.4006 27.4422 36.1484 25.5682 35.294 23.5056C34.4397 21.4431 34 19.2325 34 17L51 17H68Z" fill="#C4C4C4"/>
</g>
<g style="mix-blend-mode:multiply">
<path d="M276 17C276 19.2325 275.56 21.4431 274.706 23.5056C273.852 25.5682 272.599 27.4422 271.021 29.0208C269.442 30.5994 267.568 31.8516 265.506 32.706C263.443 33.5603 261.232 34 259 34C256.768 34 254.557 33.5603 252.494 32.706C250.432 31.8516 248.558 30.5994 246.979 29.0208C245.401 27.4422 244.148 25.5682 243.294 23.5056C242.44 21.4431 242 19.2325 242 17L259 17H276Z" fill="#C4C4C4"/>
</g>
<g style="mix-blend-mode:multiply">
<path d="M172 17C172 19.2325 171.56 21.4431 170.706 23.5056C169.852 25.5682 168.599 27.4422 167.021 29.0208C165.442 30.5994 163.568 31.8516 161.506 32.706C159.443 33.5603 157.232 34 155 34C152.768 34 150.557 33.5603 148.494 32.706C146.432 31.8516 144.558 30.5994 142.979 29.0208C141.401 27.4422 140.148 25.5682 139.294 23.5056C138.44 21.4431 138 19.2325 138 17L155 17H172Z" fill="#C4C4C4"/>
</g>
<g style="mix-blend-mode:multiply">
<path d="M380 17C380 19.2325 379.56 21.4431 378.706 23.5056C377.852 25.5682 376.599 27.4422 375.021 29.0208C373.442 30.5994 371.568 31.8516 369.506 32.706C367.443 33.5603 365.232 34 363 34C360.768 34 358.557 33.5603 356.494 32.706C354.432 31.8516 352.558 30.5994 350.979 29.0208C349.401 27.4422 348.148 25.5682 347.294 23.5056C346.44 21.4431 346 19.2325 346 17L363 17H380Z" fill="#C4C4C4"/>
</g>
<g style="mix-blend-mode:multiply">
<path d="M103 17C103 19.2325 102.547 21.4431 101.668 23.5056C100.788 25.5682 99.4994 27.4422 97.8744 29.0208C96.2493 30.5994 94.3202 31.8516 92.197 32.706C90.0738 33.5603 87.7981 34 85.5 34C83.2019 34 80.9262 33.5603 78.803 32.706C76.6798 31.8516 74.7507 30.5994 73.1256 29.0208C71.5006 27.4422 70.2116 25.5682 69.3321 23.5056C68.4527 21.4431 68 19.2325 68 17L85.5 17H103Z" fill="#C4C4C4"/>
</g>
<g style="mix-blend-mode:multiply">
<path d="M311 17C311 19.2325 310.547 21.4431 309.668 23.5056C308.788 25.5682 307.499 27.4422 305.874 29.0208C304.249 30.5994 302.32 31.8516 300.197 32.706C298.074 33.5603 295.798 34 293.5 34C291.202 34 288.926 33.5603 286.803 32.706C284.68 31.8516 282.751 30.5994 281.126 29.0208C279.501 27.4422 278.212 25.5682 277.332 23.5056C276.453 21.4431 276 19.2325 276 17L293.5 17H311Z" fill="#C4C4C4"/>
</g>
<g style="mix-blend-mode:multiply">
<path d="M207 17C207 19.2325 206.547 21.4431 205.668 23.5056C204.788 25.5682 203.499 27.4422 201.874 29.0208C200.249 30.5994 198.32 31.8516 196.197 32.706C194.074 33.5603 191.798 34 189.5 34C187.202 34 184.926 33.5603 182.803 32.706C180.68 31.8516 178.751 30.5994 177.126 29.0208C175.501 27.4422 174.212 25.5682 173.332 23.5056C172.453 21.4431 172 19.2325 172 17L189.5 17H207Z" fill="#C4C4C4"/>
</g>
<g style="mix-blend-mode:multiply">
<path d="M415 17C415 19.2325 414.547 21.4431 413.668 23.5056C412.788 25.5682 411.499 27.4422 409.874 29.0208C408.249 30.5994 406.32 31.8516 404.197 32.706C402.074 33.5603 399.798 34 397.5 34C395.202 34 392.926 33.5603 390.803 32.706C388.68 31.8516 386.751 30.5994 385.126 29.0208C383.501 27.4422 382.212 25.5682 381.332 23.5056C380.453 21.4431 380 19.2325 380 17L397.5 17H415Z" fill="#C4C4C4"/>
</g>
</svg>
