<svg xmlns="http://www.w3.org/2000/svg" viewBox="0 0 7.48 18.95"><defs><style>.cls-1{fill:#5bb0a5;}</style></defs><g id="Layer_2" data-name="Layer 2"><g id="text"><path class="cls-1" d="M0,9.44V16c0,2.36,0,2.34,2.35,2.83A2.74,2.74,0,0,0,5.2,18a2.6,2.6,0,0,0,.42-2.84c-.19-.45-.14-.58.31-.83A2.77,2.77,0,0,0,6.77,10c-.4-.48-.27-.67,0-1.07A2.77,2.77,0,0,0,6,4.65c-.49-.28-.5-.44-.33-.92A2.71,2.71,0,0,0,2.51.05C1.93.15,1.38.39.8.5S0,1,0,1.6C0,4.21,0,6.83,0,9.44ZM4.78,5.93c.59,0,1,.28,1,.93a.93.93,0,0,1-.93,1,1,1,0,0,1-1-1C3.79,6.32,4.16,6,4.78,5.93Zm0,4.92a1,1,0,0,1,1.07.93.9.9,0,0,1-.91,1.06A.88.88,0,0,1,3.84,12,1,1,0,0,1,4.74,10.85Zm-1.9,6.42a.8.8,0,0,1-.82-1c0-.56.38-.86,1-.82a.85.85,0,0,1,.78,1A.84.84,0,0,1,2.84,17.27ZM2,2.32c.07-.53.39-.9,1-.8a.9.9,0,1,1-.14,1.79C2.25,3.22,2,2.88,2,2.32Z"/></g></g></svg>