<svg xmlns="http://www.w3.org/2000/svg" viewBox="0 0 18 14.76"><defs><style>.cls-1{fill:#d94435;}</style></defs><g id="Layer_2" data-name="Layer 2"><g id="text"><circle class="cls-1" cx="1.97" cy="7.19" r="1.97"/><path class="cls-1" d="M4.94,7.14s9.29-4.63,12.45-1.47h0a2.08,2.08,0,0,1,0,2.94h0C13.9,12.1,4.94,7.14,4.94,7.14Z"/><path class="cls-1" d="M4.28,9.85s4.91,1.65,4.91,3.88h0a1,1,0,0,1-1,1h0C5.69,14.76,4.28,9.85,4.28,9.85Z"/><path class="cls-1" d="M4.28,4.91S9.19,3.27,9.19,1h0a1,1,0,0,0-1-1h0C5.69,0,4.28,4.91,4.28,4.91Z"/></g></g></svg>