<svg xmlns="http://www.w3.org/2000/svg" viewBox="0 0 15.58 13.39"><defs><style>.cls-1{fill:#8fa33b;}</style></defs><g id="Layer_2" data-name="Layer 2"><g id="text"><path class="cls-1" d="M15.58,6.92a3.19,3.19,0,0,0-2.69-2.8A3,3,0,0,0,12.58.69C11.46-.43,9.34-.15,7.79,1.3,6.24-.15,4.12-.43,3,.69a2.88,2.88,0,0,0-.47,3A3.12,3.12,0,0,0,0,6.48,3.17,3.17,0,0,0,2.69,9.27,3,3,0,0,0,3,12.7c1.12,1.13,3.24.84,4.79-.61,1.55,1.45,3.67,1.74,4.79.61a2.87,2.87,0,0,0,.47-3A3.13,3.13,0,0,0,15.58,6.92ZM7.79,8A1.33,1.33,0,1,1,9.12,6.7,1.33,1.33,0,0,1,7.79,8Z"/></g></g></svg>